<svg width="33" height="36" viewBox="0 0 33 36" fill="none" xmlns="http://www.w3.org/2000/svg">
<path d="M10.0424 22.2486C10.0424 18.6315 13.0265 15.6475 16.6435 15.6475C18.0903 15.6475 19.5372 16.0996 20.6223 17.0039" stroke="white" stroke-width="1.3" stroke-miterlimit="10" stroke-linecap="round" stroke-linejoin="round"/>
<path d="M16.6433 15.6479C18.8407 15.6479 20.6221 13.8666 20.6221 11.6692C20.6221 9.47178 18.8407 7.69043 16.6433 7.69043C14.4459 7.69043 12.6646 9.47178 12.6646 11.6692C12.6646 13.8666 14.4459 15.6479 16.6433 15.6479Z" stroke="white" stroke-width="1.3" stroke-miterlimit="10" stroke-linecap="round" stroke-linejoin="round"/>
<path d="M16.6436 1C25.2341 1 32.2873 7.96282 32.2873 16.6437C32.2873 25.3246 25.3245 32.2875 16.6436 32.2875" stroke="white" stroke-width="1.3" stroke-miterlimit="10" stroke-linecap="round" stroke-linejoin="round"/>
<path d="M19.4467 35L16.6435 32.1968L19.4467 29.3936" stroke="white" stroke-width="1.3" stroke-miterlimit="10" stroke-linecap="round" stroke-linejoin="round"/>
<path d="M16.2821 25.5062H15.197V21.3466L13.8406 21.7083V20.8041L16.1013 19.9902H16.1917V25.5062H16.2821Z" fill="white"/>
<path d="M20.9842 21.5275C20.9842 21.7988 20.8937 22.07 20.8033 22.2509C20.7129 22.4317 20.4416 22.6126 20.2608 22.703C20.532 22.7934 20.7129 22.9743 20.8937 23.2456C21.0746 23.4264 21.165 23.6977 21.165 24.0594C21.165 24.5115 20.9842 24.9637 20.6225 25.235C20.2608 25.5062 19.8086 25.6871 19.2661 25.6871C18.7235 25.6871 18.2714 25.5062 17.9097 25.235C17.548 24.9637 17.3671 24.602 17.3671 24.0594C17.3671 23.7881 17.4575 23.5169 17.6384 23.2456C17.8193 22.9743 18.0001 22.8839 18.2714 22.703C18.0001 22.6126 17.8193 22.4317 17.7288 22.2509C17.6384 22.07 17.548 21.7988 17.548 21.5275C17.548 21.0753 17.7288 20.7136 18.0001 20.4424C18.2714 20.1711 18.7235 19.9902 19.2661 19.9902C19.8086 19.9902 20.2608 20.1711 20.532 20.4424C20.8033 20.6232 20.9842 20.9849 20.9842 21.5275ZM19.9895 23.969C19.9895 23.6977 19.8991 23.5169 19.8086 23.4264C19.6278 23.2456 19.4469 23.2456 19.2661 23.2456C18.9948 23.2456 18.8139 23.336 18.7235 23.4264C18.5427 23.6073 18.5427 23.7881 18.5427 23.969C18.5427 24.2403 18.6331 24.4211 18.7235 24.5115C18.8139 24.602 19.0852 24.6924 19.2661 24.6924C19.5374 24.6924 19.7182 24.602 19.8086 24.5115C19.8991 24.4211 19.9895 24.1498 19.9895 23.969ZM19.8991 21.5275C19.8991 21.3466 19.8086 21.1658 19.7182 20.9849C19.6278 20.8945 19.4469 20.8041 19.2661 20.8041C19.0852 20.8041 18.9044 20.8945 18.8139 20.9849C18.7235 21.0754 18.6331 21.2562 18.6331 21.5275C18.6331 21.7083 18.7235 21.8892 18.8139 22.07C18.9044 22.1605 19.0852 22.2509 19.2661 22.2509C19.4469 22.2509 19.6278 22.1605 19.7182 22.07C19.8086 21.9796 19.8991 21.7988 19.8991 21.5275Z" fill="white"/>
<path d="M24.873 23.2452C24.873 23.9686 24.6921 24.6016 24.4208 24.9633C24.1496 25.325 23.607 25.5963 23.0644 25.5963C22.4315 25.5963 21.9793 25.4154 21.7081 24.9633C21.3463 24.6016 21.2559 23.9686 21.2559 23.2452V22.2505C21.2559 21.5271 21.4368 20.8941 21.7081 20.5324C22.0698 20.1707 22.5219 19.8994 23.0644 19.8994C23.607 19.8994 24.1496 20.0803 24.4208 20.5324C24.7825 20.8941 24.873 21.5271 24.873 22.2505V23.2452ZM23.7879 22.1601C23.7879 21.7079 23.6974 21.3462 23.607 21.1654C23.5166 20.9845 23.2453 20.8941 23.0644 20.8941C22.7932 20.8941 22.6123 20.9845 22.5219 21.1654C22.4315 21.3462 22.341 21.7079 22.341 22.0696V23.426C22.341 23.8782 22.4315 24.2399 22.5219 24.4207C22.6123 24.6016 22.8836 24.7824 23.0644 24.7824C23.3357 24.7824 23.5166 24.692 23.607 24.5111C23.6974 24.3303 23.7879 23.9686 23.7879 23.5165V22.1601Z" fill="white"/>
<path d="M8.86708 30.1172C4.16491 27.4044 1 22.3406 1 16.5533C1 8.41495 7.2394 1.72341 15.1969 1" stroke="white" stroke-width="1.3" stroke-linecap="round" stroke-linejoin="round" stroke-dasharray="0.1 4"/>
<path d="M16.5534 1C16.5534 1 16.6438 1 16.5534 1" stroke="white" stroke-width="1.3" stroke-linecap="round" stroke-linejoin="round" stroke-dasharray="0.1 4"/>
</svg>
