<svg width="33" height="36" viewBox="0 0 33 36" fill="none" xmlns="http://www.w3.org/2000/svg">
<path d="M10.0187 25.0806C10.0187 21.4732 12.9948 18.4971 16.6022 18.4971C18.0452 18.4971 19.4881 18.948 20.5704 19.8499" stroke="#4F6872" stroke-width="1.3" stroke-miterlimit="10" stroke-linecap="round" stroke-linejoin="round"/>
<path d="M16.602 18.4969C18.7935 18.4969 20.5701 16.7203 20.5701 14.5287C20.5701 12.3371 18.7935 10.5605 16.602 10.5605C14.4104 10.5605 12.6338 12.3371 12.6338 14.5287C12.6338 16.7203 14.4104 18.4969 16.602 18.4969Z" stroke="#4F6872" stroke-width="1.3" stroke-miterlimit="10" stroke-linecap="round" stroke-linejoin="round"/>
<path d="M21.6524 4.69775C27.6949 6.77201 32.1139 12.6341 32.1139 19.398C32.1139 27.9656 25.1697 35 16.5119 35C7.85409 35 1 27.9656 1 19.398C1 10.8304 7.94427 3.7959 16.6021 3.7959" stroke="#4F6872" stroke-width="1.3" stroke-miterlimit="10" stroke-linecap="round" stroke-linejoin="round"/>
<path d="M13.7162 1L16.6021 3.79574L13.7162 6.68168" stroke="#4F6872" stroke-width="1.3" stroke-miterlimit="10" stroke-linecap="round" stroke-linejoin="round"/>
<path d="M14.618 25.0802H15.1591C15.4297 25.0802 15.61 24.99 15.7904 24.8998C15.8806 24.7194 15.9708 24.5391 15.9708 24.3587C15.9708 24.1783 15.8806 23.9979 15.7904 23.8176C15.7002 23.7274 15.5199 23.6372 15.2493 23.6372C15.0689 23.6372 14.8886 23.7274 14.7082 23.8176C14.5278 23.9078 14.5278 24.0881 14.5278 24.2685H13.4456C13.4456 23.9979 13.5358 23.7274 13.7162 23.4568C13.8965 23.1863 14.0769 23.0961 14.3475 22.9157C14.618 22.8255 14.8886 22.7354 15.2493 22.7354C15.7904 22.7354 16.2413 22.9157 16.6021 23.1863C16.9628 23.4568 17.053 23.8176 17.053 24.3587C17.053 24.6292 16.9628 24.8096 16.7825 25.0802C16.6021 25.2605 16.4217 25.4409 16.1512 25.5311C16.4217 25.6213 16.6923 25.8017 16.8726 26.0722C17.053 26.2526 17.1432 26.5231 17.1432 26.8839C17.1432 27.3348 16.9628 27.7857 16.6021 28.0563C16.2413 28.3268 15.7904 28.5072 15.1591 28.5072C14.618 28.5072 14.1671 28.3268 13.8063 28.0563C13.4456 27.7857 13.2652 27.425 13.2652 26.8839H14.3475C14.3475 27.0642 14.4376 27.2446 14.618 27.425C14.7984 27.6054 14.9787 27.6054 15.1591 27.6054C15.4297 27.6054 15.61 27.5152 15.7904 27.425C15.9708 27.2446 15.9708 27.0642 15.9708 26.8839C15.9708 26.3428 15.7002 26.0722 15.0689 26.0722H14.5278V25.0802H14.618Z" fill="#4F6872"/>
<path d="M20.2998 22.8242V23.7261H20.2097C19.7587 23.7261 19.3078 23.8163 19.0372 24.0868C18.7667 24.3574 18.5863 24.7181 18.4961 25.0789C18.7667 24.8083 19.1274 24.6279 19.5784 24.6279C20.0293 24.6279 20.39 24.8083 20.7508 25.169C21.0213 25.5298 21.2017 25.9807 21.2017 26.5218C21.2017 26.8826 21.1115 27.2433 20.9311 27.5139C20.7508 27.7844 20.5704 28.055 20.2998 28.1452C20.0293 28.3255 19.6685 28.4157 19.3078 28.4157C18.7667 28.4157 18.2256 28.2353 17.955 27.7844C17.5943 27.4237 17.4139 26.8826 17.4139 26.1611V25.8003C17.4139 25.169 17.5041 24.7181 17.7747 24.2672C17.955 23.8163 18.3158 23.4555 18.7667 23.185C19.2176 22.9144 19.6685 22.8242 20.2097 22.8242H20.2998ZM19.2176 25.5298C19.0372 25.5298 18.8569 25.62 18.7667 25.7102C18.5863 25.8003 18.4961 25.8905 18.4059 26.0709V26.4316C18.4059 26.7924 18.4961 27.0629 18.5863 27.2433C18.7667 27.4237 18.9471 27.5139 19.2176 27.5139C19.4882 27.5139 19.6685 27.4237 19.7587 27.2433C19.9391 27.0629 19.9391 26.7924 19.9391 26.5218C19.9391 26.2513 19.8489 25.9807 19.7587 25.8003C19.6685 25.62 19.4882 25.5298 19.2176 25.5298Z" fill="#4F6872"/>
<path d="M24.8087 26.0712C24.8087 26.7927 24.6284 27.424 24.3578 27.7848C24.0873 28.1455 23.5461 28.4161 23.005 28.4161C22.3737 28.4161 21.9228 28.2357 21.6523 27.7848C21.2915 27.424 21.2013 26.7927 21.2013 26.0712V25.0792C21.2013 24.3577 21.3817 23.7264 21.6523 23.3657C22.013 23.0049 22.4639 22.7344 23.005 22.7344C23.6363 22.7344 24.0873 22.9147 24.3578 23.3657C24.7186 23.7264 24.8087 24.3577 24.8087 25.0792V26.0712ZM23.7265 24.8988C23.7265 24.4479 23.6363 24.0872 23.5461 23.9068C23.456 23.7264 23.1854 23.6362 23.005 23.6362C22.7345 23.6362 22.5541 23.7264 22.4639 23.9068C22.3737 24.0872 22.2835 24.4479 22.2835 24.8086V26.1614C22.2835 26.6123 22.3737 26.9731 22.4639 27.1535C22.5541 27.3338 22.8247 27.5142 23.005 27.5142C23.2756 27.5142 23.456 27.424 23.5461 27.2436C23.6363 27.0633 23.7265 26.7025 23.7265 26.2516V24.8988Z" fill="#4F6872"/>
</svg>
