<svg width="36" height="33" viewBox="0 0 36 33" fill="none" xmlns="http://www.w3.org/2000/svg">
<path d="M34.948 13.8203L32.2394 16.7095L29.3502 14.0009" stroke="#4F6872" stroke-width="1.3" stroke-miterlimit="10" stroke-linecap="round" stroke-linejoin="round"/>
<path d="M10.119 22.3078C10.119 18.6963 13.0984 15.7168 16.7099 15.7168C18.1545 15.7168 19.5991 16.1682 20.6826 17.0711" stroke="#4F6872" stroke-width="1.3" stroke-miterlimit="10" stroke-linecap="round" stroke-linejoin="round"/>
<path d="M16.6196 15.8076C18.8136 15.8076 20.5922 14.029 20.5922 11.8349C20.5922 9.64091 18.8136 7.8623 16.6196 7.8623C14.4256 7.8623 12.647 9.64091 12.647 11.8349C12.647 14.029 14.4256 15.8076 16.6196 15.8076Z" stroke="#4F6872" stroke-width="1.3" stroke-miterlimit="10" stroke-linecap="round" stroke-linejoin="round"/>
<path d="M19.6895 23.3899C19.4186 23.6608 19.0575 23.8413 18.6963 23.8413C18.2449 23.8413 17.7935 23.6608 17.5226 23.2996C17.2517 22.9385 17.0712 22.487 17.0712 21.9453C17.0712 21.5842 17.1615 21.223 17.342 20.9521C17.5226 20.6813 17.7032 20.4104 17.974 20.2298C18.2449 20.0493 18.6061 19.959 18.9672 19.959C19.3284 19.959 19.6895 20.0493 19.9604 20.2298C20.2312 20.4104 20.5021 20.6813 20.5924 21.0424C20.7729 21.4036 20.8632 21.7647 20.8632 22.2162V22.6676C20.8632 23.5705 20.5924 24.2928 20.1409 24.8345C19.6895 25.3762 19.0575 25.6471 18.2449 25.6471H17.974V24.7442H18.2449C19.0575 24.7442 19.5992 24.2928 19.6895 23.3899ZM18.9672 23.0287C19.1478 23.0287 19.3284 23.0287 19.4186 22.8482C19.5089 22.7579 19.5992 22.6676 19.6895 22.487V22.0356C19.6895 21.6744 19.5992 21.4036 19.5089 21.1327C19.3283 20.9521 19.1478 20.8619 18.9672 20.8619C18.7866 20.8619 18.606 20.9521 18.4255 21.1327C18.2449 21.3133 18.2449 21.5842 18.2449 21.855C18.2449 22.1259 18.3352 22.3967 18.4255 22.5773C18.5158 22.9385 18.6963 23.0287 18.9672 23.0287Z" fill="#4F6872"/>
<path d="M24.5647 23.3895C24.5647 24.1118 24.3842 24.7438 24.1133 25.1049C23.8424 25.4661 23.3007 25.7369 22.759 25.7369C22.127 25.7369 21.6755 25.5563 21.4047 25.1049C21.0435 24.7438 20.9532 24.1118 20.9532 23.3895V22.3963C20.9532 21.674 21.1338 21.042 21.4047 20.6808C21.7658 20.3197 22.2173 20.0488 22.759 20.0488C23.3007 20.0488 23.8424 20.2294 24.1133 20.6808C24.4744 21.042 24.5647 21.674 24.5647 22.3963V23.3895ZM23.4813 22.2157C23.4813 21.7643 23.391 21.4031 23.3007 21.2226C23.2104 21.042 22.9396 20.9517 22.759 20.9517C22.4881 20.9517 22.3075 21.042 22.2173 21.2226C22.127 21.4031 22.0367 21.7643 22.0367 22.1254V23.4797C22.0367 23.9312 22.127 24.2923 22.2173 24.4729C22.3075 24.6535 22.5784 24.8341 22.759 24.8341C23.0299 24.8341 23.2104 24.7438 23.3007 24.5632C23.391 24.3826 23.4813 24.0215 23.4813 23.57V22.2157Z" fill="#4F6872"/>
<path d="M16.6197 1.08984C25.197 1.08984 32.2394 8.04196 32.2394 16.7095" stroke="#4F6872" stroke-width="1.3" stroke-miterlimit="10" stroke-linecap="round" stroke-linejoin="round"/>
<path d="M31.1559 22.3078C28.8987 28.0862 23.2106 32.2394 16.6197 32.2394C8.0424 32.2394 1 25.2872 1 16.6197C1 7.95211 7.95212 1 16.6197 1" stroke="#4F6872" stroke-width="1.3" stroke-miterlimit="10" stroke-linecap="round" stroke-linejoin="round" stroke-dasharray="0.1 4"/>
</svg>
