<svg width="25" height="25" viewBox="0 0 25 25" fill="none" xmlns="http://www.w3.org/2000/svg">
<circle cx="12.5" cy="12.5" r="12.5" fill="#FFDE33"/>
<path d="M13.9258 14.498H11.2598L10.8398 4.78125H14.3457L13.9258 14.498ZM10.7422 17.5254C10.7422 17.0436 10.9147 16.6497 11.2598 16.3438C11.6113 16.0312 12.0475 15.875 12.5684 15.875C13.0892 15.875 13.5221 16.0312 13.8672 16.3438C14.2188 16.6497 14.3945 17.0436 14.3945 17.5254C14.3945 18.0072 14.2188 18.4043 13.8672 18.7168C13.5221 19.0228 13.0892 19.1758 12.5684 19.1758C12.0475 19.1758 11.6113 19.0228 11.2598 18.7168C10.9147 18.4043 10.7422 18.0072 10.7422 17.5254Z" fill="#D9700F"/>
</svg>
