<svg width="40" height="40" viewBox="0 0 40 40" fill="none" xmlns="http://www.w3.org/2000/svg">
<path d="M22.1039 27.8148C26.6124 27.8148 30.2672 24.16 30.2672 19.6515C30.2672 15.1431 26.6124 11.4883 22.1039 11.4883C17.5955 11.4883 13.9407 15.1431 13.9407 19.6515C13.9407 24.16 17.5955 27.8148 22.1039 27.8148Z" stroke="#4F6872" stroke-width="1.3" stroke-miterlimit="10" stroke-linecap="round" stroke-linejoin="round"/>
<path d="M18.6161 23.2132C16.6866 21.2837 16.6866 18.0926 18.6161 16.1631" stroke="#4F6872" stroke-width="1.3" stroke-miterlimit="10" stroke-linecap="round" stroke-linejoin="round"/>
<path d="M27.8923 25.4395L33.6808 31.228" stroke="#4F6872" stroke-width="1.3" stroke-miterlimit="10" stroke-linecap="round" stroke-linejoin="round"/>
<path d="M20.7681 30.7085V31.228H6V25.4395H11.7885" stroke="#4F6872" stroke-width="1.3" stroke-miterlimit="10" stroke-linecap="round" stroke-linejoin="round"/>
<path d="M20.7681 8.6679V8H6V16.6827H11.7885" stroke="#4F6872" stroke-width="1.3" stroke-miterlimit="10" stroke-linecap="round" stroke-linejoin="round"/>
<path d="M11.7885 16.6826H6V22.5453H11.7885" stroke="#4F6872" stroke-width="1.3" stroke-miterlimit="10" stroke-linecap="round" stroke-linejoin="round"/>
<path d="M9.26553 29.3729C9.79835 29.3729 10.2303 28.9409 10.2303 28.4081C10.2303 27.8753 9.79835 27.4434 9.26553 27.4434C8.73271 27.4434 8.30078 27.8753 8.30078 28.4081C8.30078 28.9409 8.73271 29.3729 9.26553 29.3729Z" fill="#4F6872"/>
<path d="M13.0502 29.3729C13.583 29.3729 14.0149 28.9409 14.0149 28.4081C14.0149 27.8753 13.583 27.4434 13.0502 27.4434C12.5174 27.4434 12.0854 27.8753 12.0854 28.4081C12.0854 28.9409 12.5174 29.3729 13.0502 29.3729Z" fill="#4F6872"/>
<path d="M16.7606 29.3729C17.2935 29.3729 17.7254 28.9409 17.7254 28.4081C17.7254 27.8753 17.2935 27.4434 16.7606 27.4434C16.2278 27.4434 15.7959 27.8753 15.7959 28.4081C15.7959 28.9409 16.2278 29.3729 16.7606 29.3729Z" fill="#4F6872"/>
<path d="M9.26553 20.616C9.79835 20.616 10.2303 20.1841 10.2303 19.6513C10.2303 19.1185 9.79835 18.6865 9.26553 18.6865C8.73271 18.6865 8.30078 19.1185 8.30078 19.6513C8.30078 20.1841 8.73271 20.616 9.26553 20.616Z" fill="#4F6872"/>
<path d="M13.0502 20.616C13.583 20.616 14.0149 20.1841 14.0149 19.6513C14.0149 19.1185 13.583 18.6865 13.0502 18.6865C12.5174 18.6865 12.0854 19.1185 12.0854 19.6513C12.0854 20.1841 12.5174 20.616 13.0502 20.616Z" fill="#4F6872"/>
<path d="M8.89429 12.5271L9.85904 13.7145L11.7885 10.3008" stroke="#4F6872" stroke-width="1.5" stroke-miterlimit="10" stroke-linecap="round" stroke-linejoin="round"/>
</svg>
