<svg width="27" height="23" viewBox="0 0 27 23" fill="none" xmlns="http://www.w3.org/2000/svg">
<path d="M15.8933 19.033C19.9509 19.033 23.2403 15.7437 23.2403 11.686C23.2403 7.62845 19.9509 4.33911 15.8933 4.33911C11.8357 4.33911 8.54639 7.62845 8.54639 11.686C8.54639 15.7437 11.8357 19.033 15.8933 19.033Z" stroke="white" stroke-width="1.3" stroke-miterlimit="10" stroke-linecap="round" stroke-linejoin="round"/>
<path d="M12.7543 14.8922C11.0178 13.1557 11.0178 10.2837 12.7543 8.54712" stroke="white" stroke-width="1.3" stroke-miterlimit="10" stroke-linecap="round" stroke-linejoin="round"/>
<path d="M21.103 16.8958L26.3127 22.1054" stroke="white" stroke-width="1.3" stroke-miterlimit="10" stroke-linecap="round" stroke-linejoin="round"/>
<path d="M14.6912 21.6379V22.1054H1.3999V16.8958H6.60955" stroke="white" stroke-width="1.3" stroke-miterlimit="10" stroke-linecap="round" stroke-linejoin="round"/>
<path d="M14.6912 1.80106V1.19995H1.3999V9.01442H6.60955" stroke="white" stroke-width="1.3" stroke-miterlimit="10" stroke-linecap="round" stroke-linejoin="round"/>
<path d="M6.60955 9.0144H1.3999V14.2908H6.60955" stroke="white" stroke-width="1.3" stroke-miterlimit="10" stroke-linecap="round" stroke-linejoin="round"/>
<path d="M4.33873 20.4355C4.81827 20.4355 5.20701 20.0468 5.20701 19.5672C5.20701 19.0877 4.81827 18.699 4.33873 18.699C3.8592 18.699 3.47046 19.0877 3.47046 19.5672C3.47046 20.0468 3.8592 20.4355 4.33873 20.4355Z" fill="white"/>
<path d="M7.74498 20.4355C8.22452 20.4355 8.61326 20.0468 8.61326 19.5672C8.61326 19.0877 8.22452 18.699 7.74498 18.699C7.26545 18.699 6.87671 19.0877 6.87671 19.5672C6.87671 20.0468 7.26545 20.4355 7.74498 20.4355Z" fill="white"/>
<path d="M11.0846 20.4355C11.5641 20.4355 11.9529 20.0468 11.9529 19.5672C11.9529 19.0877 11.5641 18.699 11.0846 18.699C10.605 18.699 10.2163 19.0877 10.2163 19.5672C10.2163 20.0468 10.605 20.4355 11.0846 20.4355Z" fill="white"/>
<path d="M4.33873 12.5544C4.81827 12.5544 5.20701 12.1657 5.20701 11.6861C5.20701 11.2066 4.81827 10.8179 4.33873 10.8179C3.8592 10.8179 3.47046 11.2066 3.47046 11.6861C3.47046 12.1657 3.8592 12.5544 4.33873 12.5544Z" fill="white"/>
<path d="M7.74498 12.5544C8.22452 12.5544 8.61326 12.1657 8.61326 11.6861C8.61326 11.2066 8.22452 10.8179 7.74498 10.8179C7.26545 10.8179 6.87671 11.2066 6.87671 11.6861C6.87671 12.1657 7.26545 12.5544 7.74498 12.5544Z" fill="white"/>
<path d="M4.00464 5.27422L4.87291 6.34286L6.60946 3.27051" stroke="white" stroke-width="1.5" stroke-miterlimit="10" stroke-linecap="round" stroke-linejoin="round"/>
</svg>
