<svg width="27" height="28" viewBox="0 0 27 28" fill="none" xmlns="http://www.w3.org/2000/svg">
<path d="M20.6526 11.2032C21.0125 9.44833 20.6606 7.62238 19.6742 6.12703C18.6878 4.63168 17.1478 3.5894 15.393 3.2295C13.6381 2.86961 11.8122 3.22156 10.3168 4.20794C8.82146 5.19432 7.77919 6.73433 7.41929 8.48918C5.83612 16.2086 2.07545 17.7357 2.07545 17.7357L21.9255 21.8067C21.9255 21.8067 19.0695 18.9226 20.6526 11.2032Z" stroke="white" stroke-width="1.3" stroke-linecap="round" stroke-linejoin="round"/>
<path d="M13.0039 24.5738C12.7415 24.8682 12.4063 25.0886 12.0319 25.2128C11.6576 25.337 11.2571 25.3606 10.8707 25.2814C10.4843 25.2021 10.1256 25.0228 9.83028 24.7612C9.53501 24.4997 9.31363 24.1652 9.18829 23.7912" stroke="white" stroke-width="1.3" stroke-linecap="round" stroke-linejoin="round"/>
<circle cx="21.5001" cy="5.5" r="5.5" fill="#FFDE33"/>
</svg>
