<svg width="26" height="27" viewBox="0 0 26 27" fill="none" xmlns="http://www.w3.org/2000/svg">
<path d="M20.6525 10.2033C21.0124 8.44842 20.6604 6.62248 19.674 5.12712C18.6876 3.63177 17.1476 2.5895 15.3928 2.2296C13.6379 1.8697 11.812 2.22165 10.3166 3.20803C8.82128 4.19441 7.77901 5.73442 7.41911 7.48927C5.83594 15.2087 2.07527 16.7358 2.07527 16.7358L21.9253 20.8068C21.9253 20.8068 19.0693 17.9227 20.6525 10.2033Z" stroke="white" stroke-width="1.3" stroke-linecap="round" stroke-linejoin="round"/>
<path d="M13.0038 23.5738C12.7414 23.8683 12.4062 24.0886 12.0319 24.2128C11.6575 24.337 11.2571 24.3606 10.8707 24.2814C10.4843 24.2022 10.1255 24.0228 9.83022 23.7613C9.53495 23.4998 9.31357 23.1653 9.18823 22.7913" stroke="white" stroke-width="1.3" stroke-linecap="round" stroke-linejoin="round"/>
</svg>
