<svg width="32" height="32" viewBox="0 0 32 32" fill="none" xmlns="http://www.w3.org/2000/svg">
<path d="M16.0296 23.8665C19.5052 23.8665 22.3228 21.049 22.3228 17.5734C22.3228 14.0978 19.5052 11.2803 16.0296 11.2803C12.554 11.2803 9.73651 14.0978 9.73651 17.5734C9.73651 21.049 12.554 23.8665 16.0296 23.8665Z" stroke="#B1AABB" stroke-width="2" stroke-miterlimit="10" stroke-linecap="round" stroke-linejoin="round"/>
<path d="M25.5881 8.19287H24" stroke="#B1AABB" stroke-width="2" stroke-miterlimit="10" stroke-linecap="round" stroke-linejoin="round"/>
<path d="M22.9165 23.8663H25.5881C26.0631 23.8663 26.4193 23.5101 26.4193 23.0352V11.4582C26.4193 10.9832 26.0631 10.627 25.5881 10.627H22.6196L20.2449 8.19287H11.7551L9.38032 10.627H6.41186C5.9369 10.627 5.58069 10.9832 5.58069 11.4582V22.9758C5.58069 23.4508 5.9369 23.807 6.41186 23.807H9.08347" stroke="#B1AABB" stroke-width="2" stroke-miterlimit="10" stroke-linecap="round" stroke-linejoin="round"/>
</svg>
