<svg width="32" height="32" viewBox="0 0 32 32" fill="none" xmlns="http://www.w3.org/2000/svg">
<path d="M24.1632 7.30225L8.19293 24.2225" stroke="#B1AABB" stroke-width="1.3" stroke-miterlimit="10" stroke-linecap="round" stroke-linejoin="round"/>
<path d="M16.564 11.6961C16.3859 11.6961 16.2078 11.6367 16.0297 11.6367C13.5955 11.6367 11.6364 13.5959 11.6364 16.03C11.6364 16.2675 11.6364 16.5644 11.6957 16.8018M12.9425 19.1766C13.7143 19.9484 14.7829 20.4234 15.9703 20.4234C18.4044 20.4234 20.3636 18.4642 20.3636 16.03C20.3636 14.7833 19.8293 13.6553 18.9388 12.8241L12.9425 19.1766Z" stroke="#B1AABB" stroke-width="1.3" stroke-miterlimit="10" stroke-linecap="round" stroke-linejoin="round"/>
<path d="M18.9388 9.20249C17.9889 8.90565 17.039 8.72754 16.0297 8.72754C10.6271 8.72754 6.23376 13.7146 4.98701 15.2582C4.63079 15.6737 4.63079 16.3268 4.98701 16.7424C5.52133 17.4548 6.76809 18.8797 8.43042 20.1858M10.5677 21.67C12.1707 22.6199 14.0111 23.273 16.0297 23.273C21.4323 23.273 25.8256 18.286 27.0724 16.7424C27.4286 16.3268 27.4286 15.6737 27.0724 15.2582C26.2412 14.2489 24.1633 11.8741 21.3729 10.2711" stroke="#B1AABB" stroke-width="1.3" stroke-miterlimit="10" stroke-linecap="round" stroke-linejoin="round"/>
</svg>
