<svg width="24" height="24" viewBox="0 0 24 24" fill="none" xmlns="http://www.w3.org/2000/svg">
<path d="M6.11116 4.53037L6.0128 4.57955L6.07108 4.67281L6.40504 5.20713L6.41107 5.21679L6.41912 5.22484C6.42007 5.22578 6.42101 5.22673 6.42196 5.22768C6.48955 5.2953 6.58191 5.38771 6.757 5.38771V5.28771L6.7571 5.38771L6.7572 5.38771L6.7574 5.38771L6.75783 5.38771L6.75878 5.3877L6.76099 5.38764L6.76665 5.38736C6.77096 5.38707 6.77633 5.38656 6.78262 5.38566C6.79518 5.38387 6.81153 5.38051 6.83036 5.37423C6.86838 5.36156 6.91568 5.33724 6.96129 5.29163C6.98207 5.27085 7.00213 5.26025 7.03548 5.24357C7.03626 5.24318 7.03705 5.24279 7.03785 5.24239C7.0711 5.22578 7.11673 5.20299 7.16166 5.15805C7.17399 5.14572 7.19839 5.13441 7.26035 5.1167C7.26697 5.11481 7.27394 5.11286 7.28121 5.11083C7.33366 5.09616 7.40187 5.07708 7.46962 5.0432C7.57831 4.98886 7.68677 4.98697 7.89243 4.98697C7.96119 4.98697 8.00258 4.98723 8.04297 4.99396C8.08088 5.00028 8.12137 5.01306 8.18166 5.0432L8.20278 5.05376H8.22638C8.23551 5.05376 8.2682 5.06142 8.31524 5.08495C8.35913 5.10689 8.39933 5.13455 8.42284 5.15805C8.4477 5.18291 8.47523 5.22344 8.51053 5.27639C8.51159 5.27799 8.51267 5.2796 8.51375 5.28123C8.54153 5.32292 8.57503 5.37319 8.61092 5.41236C8.63648 5.46552 8.64787 5.50283 8.65372 5.53792C8.66045 5.57831 8.66071 5.6197 8.66071 5.68845C8.66071 5.86334 8.60408 5.97847 8.53768 6.11127C8.47902 6.22859 8.42339 6.2851 8.28925 6.41923C8.21996 6.48852 8.09774 6.60943 7.98129 6.66766C7.89986 6.70837 7.83991 6.76836 7.79202 6.81628L7.78833 6.81997C7.73664 6.87166 7.69738 6.9098 7.64734 6.93482L7.63283 6.94208L7.62135 6.95355L7.61682 6.95808C7.48654 7.08835 7.40952 7.16536 7.33546 7.31349C7.25805 7.4683 7.25808 7.62231 7.25811 7.75193L7.25811 7.75896V7.7666L7.25927 7.77416L7.39285 8.64244L7.4059 8.72723H7.49169H8.29317H8.37663L8.39156 8.64512L8.52514 7.91042L8.52676 7.90155V7.89253C8.52676 7.88341 8.53442 7.85072 8.55794 7.80368C8.57989 7.75979 8.60754 7.71959 8.63105 7.69608C8.65276 7.67437 8.67292 7.64887 8.6906 7.62599C8.69476 7.62061 8.69882 7.61532 8.70283 7.6101C8.71703 7.5916 8.73063 7.57388 8.74569 7.55581C8.78368 7.51023 8.8233 7.47212 8.87222 7.44766L8.88673 7.4404L8.89821 7.42892C8.9675 7.35963 9.08972 7.23872 9.20617 7.18049C9.29121 7.13798 9.35184 7.07547 9.40435 7.0142C9.42146 6.99424 9.43739 6.97487 9.4531 6.95577C9.48827 6.913 9.52235 6.87157 9.56611 6.82781C9.71473 6.67919 9.78794 6.52966 9.85743 6.32119L9.85855 6.31783C9.92503 6.11839 9.99614 5.90507 9.99614 5.62166C9.99614 5.40481 9.92514 5.12528 9.85743 4.92214L9.8532 4.90943L9.84577 4.89829L9.8416 4.89204C9.71115 4.69636 9.57315 4.48935 9.43253 4.34873L9.42553 4.34172L9.41729 4.33623L9.41056 4.33174C9.21513 4.20145 9.00547 4.06166 8.79233 3.99062L8.79242 3.99034L8.78496 3.98847L8.77899 3.98698C8.51595 3.92121 8.23873 3.8519 7.95922 3.8519L7.95291 3.8519C7.76104 3.8519 7.55217 3.85189 7.3414 3.91897C7.18671 3.92393 6.9802 3.99566 6.84586 4.06283L6.44511 4.2632C6.36368 4.30392 6.30373 4.3639 6.25584 4.41182C6.2546 4.41306 6.25337 4.41429 6.25215 4.41552C6.20046 4.4672 6.16121 4.50534 6.11116 4.53037ZM7.08703 10.0259C6.99059 10.1224 6.99075 10.229 6.99093 10.3481C6.99094 10.3533 6.99095 10.3585 6.99095 10.3638C6.99095 10.369 6.99094 10.3743 6.99093 10.3795C6.99077 10.4874 6.99062 10.5851 7.06235 10.6742C7.07232 10.7212 7.0968 10.7609 7.11948 10.7911C7.14884 10.8303 7.1865 10.8679 7.21808 10.8995L7.22061 10.902C7.27114 10.9526 7.34149 10.9758 7.38611 10.9906C7.38858 10.9914 7.39097 10.9922 7.39328 10.993C7.44953 11.0117 7.47431 11.0221 7.48777 11.0356C7.58421 11.132 7.69082 11.1319 7.80993 11.1317C7.81514 11.1317 7.82038 11.1317 7.82564 11.1317H7.82736C7.86046 11.1317 7.91736 11.1317 7.97566 11.122C8.02199 11.1143 8.08034 11.0987 8.1304 11.0634C8.26766 11.0524 8.3494 10.9822 8.41014 10.9225C8.44081 10.9111 8.46353 10.8903 8.47888 10.8704C8.49879 10.8445 8.51151 10.8135 8.5196 10.7933C8.52165 10.7882 8.52358 10.7834 8.5254 10.7788C8.54235 10.7362 8.5507 10.7152 8.56426 10.7017C8.6607 10.6052 8.66054 10.4986 8.66035 10.3795C8.66034 10.3743 8.66034 10.369 8.66034 10.3638V10.3621C8.66034 10.329 8.66034 10.2721 8.65063 10.2138C8.64291 10.1674 8.6274 10.1091 8.59207 10.059C8.57998 9.90798 8.49612 9.82416 8.43351 9.76158L8.43068 9.75875C8.38014 9.70821 8.3098 9.68494 8.26518 9.67018C8.26271 9.66936 8.26031 9.66857 8.25801 9.6678C8.20176 9.64905 8.17697 9.63862 8.16351 9.62516C8.06707 9.52872 7.96047 9.52889 7.84135 9.52907C7.83614 9.52908 7.8309 9.52908 7.82564 9.52908C7.79257 9.52908 7.76356 9.53734 7.74122 9.54522C7.72708 9.55021 7.71025 9.55717 7.69604 9.56305C7.6901 9.56551 7.68461 9.56778 7.67997 9.56963C7.64366 9.58416 7.60712 9.59588 7.55848 9.59588C7.38339 9.59588 7.29103 9.68829 7.22345 9.75591L7.22061 9.75875C7.17007 9.80928 7.1468 9.87962 7.13204 9.92424C7.13122 9.92672 7.13043 9.92911 7.12966 9.93141C7.11091 9.98766 7.10048 10.0125 7.08703 10.0259Z" fill="#4F6872" stroke="#4F6872" stroke-width="0.2"/>
<path d="M1.07971 7.29137C1.07971 9.36187 2.08157 11.232 3.61774 12.3674V15.3062L5.55466 13.3693C6.15578 13.5697 6.75689 13.6365 7.4248 13.6365H8.62702C12.1669 13.6365 14.9721 10.7645 14.9721 7.29137C14.9721 3.75148 12.1001 0.946289 8.62702 0.946289H7.4248C3.9517 0.946289 1.07971 3.75148 1.07971 7.29137Z" stroke="#4F6872" stroke-width="1.3" stroke-miterlimit="10" stroke-linecap="round" stroke-linejoin="round"/>
<path d="M20.115 8.15967H14.9722C14.5714 11.2988 11.8998 13.7033 8.69389 13.7033H7.49167C7.35809 13.7033 7.2913 13.7033 7.15771 13.7033V18.245C7.15771 19.7812 8.42673 21.0502 9.96291 21.0502H13.0353H12.9685L15.039 23.1207V21.0502H20.115C21.6512 21.0502 22.9202 19.7812 22.9202 18.245V10.9649C22.9202 9.36189 21.6512 8.15967 20.115 8.15967Z" stroke="#4F6872" stroke-width="1.3" stroke-miterlimit="10" stroke-linecap="round" stroke-linejoin="round"/>
<path d="M10.564 18.1781H19.4471" stroke="#4F6872" stroke-width="1.3" stroke-miterlimit="10" stroke-linecap="round" stroke-linejoin="round"/>
<path d="M10.564 15.5734H19.4471" stroke="#4F6872" stroke-width="1.3" stroke-miterlimit="10" stroke-linecap="round" stroke-linejoin="round"/>
<path d="M15.0389 13.0354H19.4471" stroke="#4F6872" stroke-width="1.3" stroke-miterlimit="10" stroke-linecap="round" stroke-linejoin="round"/>
</svg>
