<svg width="32" height="32" viewBox="0 0 32 32" fill="none" xmlns="http://www.w3.org/2000/svg">
<path d="M16.0297 11.6362C13.5955 11.6362 11.6364 13.5954 11.6364 16.0296C11.6364 18.4637 13.5955 20.4229 16.0297 20.4229C18.4638 20.4229 20.423 18.4637 20.423 16.0296C20.423 13.5954 18.4044 11.6362 16.0297 11.6362Z" stroke="#4F6872" stroke-width="1.3" stroke-miterlimit="10" stroke-linecap="round" stroke-linejoin="round"/>
<path d="M27.013 15.2582C25.7662 13.7146 21.3729 8.72754 15.9703 8.72754C10.5677 8.72754 6.17438 13.7146 4.92762 15.2582C4.57141 15.6737 4.57141 16.3268 4.92762 16.7424C6.17438 18.286 10.5677 23.273 15.9703 23.273C21.3729 23.273 25.7662 18.286 27.013 16.7424C27.3692 16.3268 27.3692 15.6737 27.013 15.2582Z" stroke="#4F6872" stroke-width="1.3" stroke-miterlimit="10" stroke-linecap="round" stroke-linejoin="round"/>
</svg>
