<svg width="20" height="20" viewBox="0 0 20 20" fill="none" xmlns="http://www.w3.org/2000/svg">
<path d="M9.95608 13.2251L10.0903 13.2922V13.3612L10.1559 13.4924C10.1562 13.4941 10.1566 13.4965 10.157 13.4998C10.1581 13.5091 10.1593 13.5231 10.16 13.5453C10.1607 13.5687 10.1608 13.5938 10.1608 13.6307C10.1608 13.6677 10.1607 13.6928 10.16 13.7162C10.1593 13.7384 10.1581 13.7524 10.157 13.7616C10.1567 13.7641 10.1564 13.766 10.1561 13.7676C10.1541 13.7708 10.1509 13.7757 10.1463 13.7822C10.1362 13.7964 10.1227 13.8137 10.1058 13.8334C10.0762 13.8678 10.0453 13.8997 10.015 13.9302C10.0088 13.9342 9.9994 13.94 9.98597 13.9476C9.9441 13.9716 9.8924 13.9977 9.82109 14.0334C9.81941 14.0337 9.81698 14.034 9.81364 14.0344C9.80442 14.0356 9.79042 14.0368 9.76821 14.0375C9.7448 14.0382 9.7197 14.0382 9.68276 14.0382C9.64582 14.0382 9.62072 14.0382 9.59731 14.0375C9.5751 14.0368 9.56109 14.0356 9.55188 14.0344C9.54854 14.034 9.5461 14.0337 9.54443 14.0334L9.4132 13.9677H9.38814C9.38654 13.9662 9.3849 13.9646 9.38322 13.9629C9.37925 13.9567 9.37349 13.9473 9.36586 13.9339C9.34193 13.8921 9.3158 13.8404 9.28013 13.7691C9.27984 13.7674 9.27945 13.7649 9.27904 13.7616C9.27789 13.7524 9.27672 13.7384 9.27603 13.7162C9.2753 13.6928 9.27524 13.6677 9.27524 13.6307C9.27524 13.6261 9.27524 13.6219 9.27525 13.618L9.41625 13.477V13.3361C9.41782 13.3345 9.41943 13.3329 9.42109 13.3312C9.42728 13.3272 9.43669 13.3215 9.45005 13.3138C9.49308 13.2892 9.54651 13.2623 9.62094 13.2251C9.71995 13.1756 9.85707 13.1756 9.95608 13.2251ZM10.1058 14.6177L9.81508 14.0364L9.81508 14.0364L10.1058 14.6177Z" stroke="#4F6872" stroke-width="1.3"/>
<path d="M7.42665 6.15766L7.45798 6.18899L7.42665 6.15766ZM7.42665 6.15766C7.49715 6.08716 7.58527 6.03428 7.6734 5.98141C7.76153 5.92853 7.84965 5.87566 7.92015 5.80516M7.42665 6.15766L7.92015 5.80516M7.92015 5.80516C7.96284 5.78381 8.012 5.756 8.06566 5.72564C8.18923 5.65573 8.33669 5.57231 8.48416 5.52315C8.58991 5.4879 8.71329 5.45265 8.83666 5.4174C8.96004 5.38215 9.08342 5.3469 9.18917 5.31165C9.75318 5.17065 10.4582 5.17065 11.0222 5.38215L7.92015 5.80516ZM11.4086 6.33528L11.4832 6.40986L11.5775 6.45703C11.5966 6.46657 11.6272 6.48739 11.6742 6.55309C11.7274 6.62765 11.7758 6.72129 11.8508 6.87136C11.9272 7.0241 11.9643 7.19784 11.8861 7.43263L11.8527 7.5327V7.63818C11.8527 7.89272 11.8055 8.09865 11.7383 8.36841C11.6977 8.47735 11.6138 8.61048 11.4684 8.82864C11.375 8.96874 11.2952 9.04847 11.1551 9.14187L11.1464 9.14769L11.1379 9.15378L10.6779 9.48233C10.462 9.60394 10.2816 9.78557 10.2198 9.84784C10.2161 9.85152 10.2129 9.85479 10.2101 9.85759C10.2082 9.85946 10.2061 9.86153 10.2039 9.86379C10.1735 9.89404 10.1082 9.95908 10.0527 10.033C10.003 10.0993 9.89874 10.2519 9.88122 10.4666L9.8186 10.9362H9.55568L9.48773 10.3587C9.49367 10.2758 9.52492 10.1669 9.59431 9.95875C9.60958 9.91295 9.63721 9.87189 9.78979 9.71932C9.78946 9.71965 9.78928 9.71982 9.78928 9.71982C9.78929 9.71983 9.79566 9.71395 9.81398 9.70141C9.83712 9.68558 9.86434 9.66902 9.91135 9.64082C9.91577 9.63816 9.9205 9.63534 9.92551 9.63235C10.0049 9.58493 10.1545 9.49565 10.2833 9.36681C10.3168 9.33334 10.3519 9.3059 10.4252 9.25094C10.4277 9.24907 10.4302 9.24717 10.4328 9.24523C10.5007 9.19435 10.6027 9.11788 10.7063 9.01431C10.7138 9.00678 10.7219 8.99879 10.7303 8.99037C10.8511 8.87025 11.061 8.66154 11.1806 8.42237C11.1827 8.41804 11.185 8.4136 11.1872 8.40906C11.2616 8.26069 11.3902 8.00413 11.3902 7.63818C11.3902 7.63662 11.3902 7.63488 11.3902 7.63297C11.3903 7.5964 11.3904 7.49762 11.3725 7.39032C11.3562 7.29235 11.3087 7.0759 11.1293 6.89656L11.0236 6.79081L10.9178 6.68505C10.7923 6.55952 10.6635 6.50205 10.585 6.47066C10.5565 6.45926 10.5382 6.45228 10.5245 6.44708C10.5009 6.43813 10.4911 6.43439 10.4669 6.42229C10.1827 6.28022 9.87741 6.26367 9.65733 6.27526C9.46808 6.28522 9.28795 6.31905 9.14234 6.36C8.92209 6.38367 8.71779 6.47152 8.56191 6.58693C8.56093 6.5873 8.55992 6.58769 8.55889 6.58808C8.54518 6.59329 8.52684 6.60026 8.49832 6.61166C8.45133 6.63046 8.38631 6.65861 8.31475 6.70512L8.15178 6.44902C8.1966 6.41892 8.24575 6.38332 8.29475 6.34233C8.31698 6.33014 8.33819 6.31822 8.35738 6.3074C8.36795 6.30144 8.37814 6.29567 8.38808 6.29005C8.42232 6.27068 8.45358 6.253 8.48697 6.23479C8.5741 6.18726 8.63953 6.15652 8.68971 6.1398C8.7794 6.1099 8.88819 6.07869 9.01523 6.04239L9.02276 6.04024C9.13215 6.00899 9.256 5.97361 9.36854 5.93692C9.82513 5.82733 10.3779 5.83673 10.7878 5.98846C11.1219 6.12252 11.2966 6.22332 11.4086 6.33528Z" stroke="#4F6872" stroke-width="1.3"/>
<path d="M10.0352 18.9888C14.9801 18.9888 18.9888 14.9801 18.9888 10.0352C18.9888 5.09021 14.9801 1.08154 10.0352 1.08154C5.09021 1.08154 1.08154 5.09021 1.08154 10.0352C1.08154 14.9801 5.09021 18.9888 10.0352 18.9888Z" stroke="#4F6872" stroke-width="1.3" stroke-miterlimit="10" stroke-linecap="round" stroke-linejoin="round"/>
</svg>
