<svg width="11" height="11" viewBox="0 0 11 11" fill="none" xmlns="http://www.w3.org/2000/svg">
<circle cx="5.5" cy="5.5" r="5.5" fill="#6E54FF"/>
<path d="M6.03174 9H4.96387V4.24512H6.03174V9ZM4.89795 3.01025C4.89795 2.84619 4.94922 2.70996 5.05176 2.60156C5.15723 2.49316 5.30664 2.43896 5.5 2.43896C5.69336 2.43896 5.84277 2.49316 5.94824 2.60156C6.05371 2.70996 6.10645 2.84619 6.10645 3.01025C6.10645 3.17139 6.05371 3.30615 5.94824 3.41455C5.84277 3.52002 5.69336 3.57275 5.5 3.57275C5.30664 3.57275 5.15723 3.52002 5.05176 3.41455C4.94922 3.30615 4.89795 3.17139 4.89795 3.01025Z" fill="white"/>
</svg>
