<svg width="50" height="50" viewBox="0 0 50 50" fill="none" xmlns="http://www.w3.org/2000/svg">
<path d="M19.293 31.4474C19.293 28.1079 21.9831 25.4177 25.3227 25.4177C26.5286 25.4177 27.6418 25.7888 28.5694 26.3454" stroke="#6E54FF" stroke-width="1.3" stroke-miterlimit="10" stroke-linecap="round" stroke-linejoin="round"/>
<path d="M25.2311 25.4179C27.2292 25.4179 28.8489 23.7981 28.8489 21.8001C28.8489 19.802 27.2292 18.1823 25.2311 18.1823C23.233 18.1823 21.6133 19.802 21.6133 21.8001C21.6133 23.7981 23.233 25.4179 25.2311 25.4179Z" stroke="#6E54FF" stroke-width="1.3" stroke-miterlimit="10" stroke-linecap="round" stroke-linejoin="round"/>
<path d="M30.2422 34.4165H36.6429" stroke="#6E54FF" stroke-width="1.3" stroke-miterlimit="10" stroke-linecap="round" stroke-linejoin="round"/>
<path d="M33.4883 31.1698V37.5705" stroke="#6E54FF" stroke-width="1.3" stroke-miterlimit="10" stroke-linecap="round" stroke-linejoin="round"/>
<path d="M33.4886 41.0024C37.1261 41.0024 40.0749 38.0536 40.0749 34.4161C40.0749 30.7786 37.1261 27.8298 33.4886 27.8298C29.8511 27.8298 26.9023 30.7786 26.9023 34.4161C26.9023 38.0536 29.8511 41.0024 33.4886 41.0024Z" stroke="#6E54FF" stroke-width="1.3" stroke-miterlimit="10" stroke-linecap="round" stroke-linejoin="round"/>
<path d="M21.8908 37.5702H13.6348V8.99878H29.3119L36.9186 16.6055V22.7279" stroke="#6E54FF" stroke-width="1.3" stroke-miterlimit="10" stroke-linecap="round" stroke-linejoin="round"/>
<path d="M36.9192 16.6048L30.9823 15.3989L29.3125 8.99817L36.9192 16.6048Z" stroke="#6E54FF" stroke-width="1.3" stroke-miterlimit="10" stroke-linecap="round" stroke-linejoin="round"/>
</svg>
