<svg width="50" height="50" viewBox="0 0 50 50" fill="none" xmlns="http://www.w3.org/2000/svg">
<path d="M17.5332 24.9509C17.5332 20.8693 20.8727 17.5298 24.9544 17.5298C29.036 17.5298 32.3755 20.8693 32.3755 24.9509" stroke="#6E54FF" stroke-width="1.3" stroke-miterlimit="10" stroke-linecap="round" stroke-linejoin="round"/>
<path d="M25.0464 17.4369C27.5056 17.4369 29.4991 15.4433 29.4991 12.9842C29.4991 10.525 27.5056 8.53149 25.0464 8.53149C22.5873 8.53149 20.5938 10.525 20.5938 12.9842C20.5938 15.4433 22.5873 17.4369 25.0464 17.4369Z" stroke="#6E54FF" stroke-width="1.3" stroke-miterlimit="10" stroke-linecap="round" stroke-linejoin="round"/>
<path d="M14.0039 41.4645C14.0039 39.6092 15.4881 38.125 17.3434 38.125C19.1987 38.125 20.6829 39.6092 20.6829 41.4645" stroke="#6E54FF" stroke-width="1.3" stroke-miterlimit="10" stroke-linecap="round" stroke-linejoin="round"/>
<path d="M17.3445 38.1238C18.4204 38.1238 19.2926 37.2516 19.2926 36.1757C19.2926 35.0998 18.4204 34.2277 17.3445 34.2277C16.2687 34.2277 15.3965 35.0998 15.3965 36.1757C15.3965 37.2516 16.2687 38.1238 17.3445 38.1238Z" stroke="#6E54FF" stroke-width="1.3" stroke-miterlimit="10" stroke-linecap="round" stroke-linejoin="round"/>
<path d="M29.4004 41.4655C29.4004 39.6102 30.8846 38.126 32.7399 38.126C34.5952 38.126 36.0794 39.6102 36.0794 41.4655" stroke="#6E54FF" stroke-width="1.3" stroke-miterlimit="10" stroke-linecap="round" stroke-linejoin="round"/>
<path d="M32.6473 38.1247C33.7232 38.1247 34.5953 37.2526 34.5953 36.1767C34.5953 35.1008 33.7232 34.2286 32.6473 34.2286C31.5714 34.2286 30.6992 35.1008 30.6992 36.1767C30.6992 37.2526 31.5714 38.1247 32.6473 38.1247Z" stroke="#6E54FF" stroke-width="1.3" stroke-miterlimit="10" stroke-linecap="round" stroke-linejoin="round"/>
<path d="M17.3438 30.6089V29.0319H32.6499V30.6089" stroke="#6E54FF" stroke-width="1.3" stroke-miterlimit="10" stroke-linecap="round" stroke-linejoin="round"/>
<path d="M24.8555 29.0326V27.3628" stroke="#6E54FF" stroke-width="1.3" stroke-miterlimit="10" stroke-linecap="round" stroke-linejoin="round"/>
</svg>
