<svg width="50" height="50" viewBox="0 0 50 50" fill="none" xmlns="http://www.w3.org/2000/svg">
<path d="M19.3887 21.5207C19.3887 18.3667 21.8933 15.8621 25.0473 15.8621C28.2013 15.8621 30.7059 18.3667 30.7059 21.5207" stroke="#6E54FF" stroke-width="1.3" stroke-miterlimit="10" stroke-linecap="round" stroke-linejoin="round"/>
<path d="M25.0475 15.8622C26.9431 15.8622 28.4798 14.3256 28.4798 12.43C28.4798 10.5344 26.9431 8.99768 25.0475 8.99768C23.1519 8.99768 21.6152 10.5344 21.6152 12.43C21.6152 14.3256 23.1519 15.8622 25.0475 15.8622Z" stroke="#6E54FF" stroke-width="1.3" stroke-miterlimit="10" stroke-linecap="round" stroke-linejoin="round"/>
<path d="M7.42188 36.2704C7.42188 33.1165 9.92651 30.6118 13.0805 30.6118C16.2345 30.6118 18.7391 33.1165 18.7391 36.2704" stroke="#6E54FF" stroke-width="1.3" stroke-miterlimit="10" stroke-linecap="round" stroke-linejoin="round"/>
<path d="M13.0807 30.7044C14.9763 30.7044 16.513 29.1677 16.513 27.2721C16.513 25.3765 14.9763 23.8398 13.0807 23.8398C11.1851 23.8398 9.64844 25.3765 9.64844 27.2721C9.64844 29.1677 11.1851 30.7044 13.0807 30.7044Z" stroke="#6E54FF" stroke-width="1.3" stroke-miterlimit="10" stroke-linecap="round" stroke-linejoin="round"/>
<path d="M31.2617 36.2704C31.2617 33.1165 33.7664 30.6118 36.9203 30.6118C40.0743 30.6118 42.579 33.1165 42.579 36.2704" stroke="#6E54FF" stroke-width="1.3" stroke-miterlimit="10" stroke-linecap="round" stroke-linejoin="round"/>
<path d="M36.9206 30.7044C38.8162 30.7044 40.3528 29.1677 40.3528 27.2721C40.3528 25.3765 38.8162 23.8398 36.9206 23.8398C35.025 23.8398 33.4883 25.3765 33.4883 27.2721C33.4883 29.1677 35.025 30.7044 36.9206 30.7044Z" stroke="#6E54FF" stroke-width="1.3" stroke-miterlimit="10" stroke-linecap="round" stroke-linejoin="round"/>
<path d="M32.1875 14.3781C34.3211 15.584 36.0836 17.4393 37.3823 19.5729" stroke="#6E54FF" stroke-width="1.3" stroke-miterlimit="10" stroke-linecap="round" stroke-linejoin="round"/>
<path d="M12.6172 19.4806C13.8231 17.347 15.6784 15.5845 17.812 14.2858" stroke="#6E54FF" stroke-width="1.3" stroke-miterlimit="10" stroke-linecap="round" stroke-linejoin="round"/>
<path d="M31.2615 39.5175C29.4062 40.4451 27.2726 41.0017 24.9535 41.0017C22.7271 41.0017 20.5936 40.4451 18.7383 39.6102" stroke="#6E54FF" stroke-width="1.3" stroke-miterlimit="10" stroke-linecap="round" stroke-linejoin="round"/>
</svg>
