<svg width="50" height="50" viewBox="0 0 50 50" fill="none" xmlns="http://www.w3.org/2000/svg">
<path d="M8.34961 34.2295C8.34961 29.5913 12.1529 25.788 16.7912 25.788C21.4294 25.788 25.2327 29.5913 25.2327 34.2295" stroke="#6E54FF" stroke-width="1.3" stroke-miterlimit="10" stroke-linecap="round" stroke-linejoin="round"/>
<path d="M16.6977 25.8811C19.5155 25.8811 21.7998 23.5968 21.7998 20.779C21.7998 17.9613 19.5155 15.677 16.6977 15.677C13.88 15.677 11.5957 17.9613 11.5957 20.779C11.5957 23.5968 13.88 25.8811 16.6977 25.8811Z" stroke="#6E54FF" stroke-width="1.3" stroke-miterlimit="10" stroke-linecap="round" stroke-linejoin="round"/>
<path d="M24.8613 34.3228C24.8613 29.6846 28.6647 25.8812 33.3029 25.8812C37.9411 25.8812 41.7444 29.6846 41.7444 34.3228" stroke="#6E54FF" stroke-width="1.3" stroke-miterlimit="10" stroke-linecap="round" stroke-linejoin="round"/>
<path d="M33.3032 25.9743C36.121 25.9743 38.4053 23.6901 38.4053 20.8723C38.4053 18.0545 36.121 15.7703 33.3032 15.7703C30.4854 15.7703 28.2012 18.0545 28.2012 20.8723C28.2012 23.6901 30.4854 25.9743 33.3032 25.9743Z" stroke="#6E54FF" stroke-width="1.3" stroke-miterlimit="10" stroke-linecap="round" stroke-linejoin="round"/>
</svg>
