<svg width="40" height="40" viewBox="0 0 40 40" fill="none" xmlns="http://www.w3.org/2000/svg">
<path d="M26.1226 23.6737C27.2357 22.7831 28.6457 22.1895 30.13 22.1895C33.5437 22.1895 36.3638 24.9353 36.3638 28.4232" stroke="#4F6872" stroke-width="1.3" stroke-miterlimit="10" stroke-linecap="round" stroke-linejoin="round"/>
<path d="M33.3073 28.4231C33.3073 27.3099 32.862 26.3451 32.1941 25.5288" stroke="#4F6872" stroke-width="1.3" stroke-miterlimit="10" stroke-linecap="round" stroke-linejoin="round"/>
<path d="M30.13 22.1892C32.1793 22.1892 33.8406 20.5279 33.8406 18.4786C33.8406 16.4293 32.1793 14.7681 30.13 14.7681C28.0807 14.7681 26.4194 16.4293 26.4194 18.4786C26.4194 20.5279 28.0807 22.1892 30.13 22.1892Z" stroke="#4F6872" stroke-width="1.3" stroke-miterlimit="10" stroke-linecap="round" stroke-linejoin="round"/>
<path d="M13.8777 23.6737C12.7645 22.7831 11.3545 22.1895 9.87024 22.1895C6.45651 22.1895 3.63647 24.9353 3.63647 28.4232" stroke="#4F6872" stroke-width="1.3" stroke-miterlimit="10" stroke-linecap="round" stroke-linejoin="round"/>
<path d="M6.69287 28.4231C6.69287 27.3099 7.13814 26.3451 7.80604 25.5288" stroke="#4F6872" stroke-width="1.3" stroke-miterlimit="10" stroke-linecap="round" stroke-linejoin="round"/>
<path d="M9.87 22.1892C11.9193 22.1892 13.5806 20.5279 13.5806 18.4786C13.5806 16.4293 11.9193 14.7681 9.87 14.7681C7.8207 14.7681 6.15942 16.4293 6.15942 18.4786C6.15942 20.5279 7.8207 22.1892 9.87 22.1892Z" stroke="#4F6872" stroke-width="1.3" stroke-miterlimit="10" stroke-linecap="round" stroke-linejoin="round"/>
<path d="M12.4675 28.4231C12.4675 24.193 15.8813 20.7793 20.1113 20.7793C24.3414 20.7793 27.7551 24.193 27.7551 28.4231" stroke="#4F6872" stroke-width="1.3" stroke-miterlimit="10" stroke-linecap="round" stroke-linejoin="round"/>
<path d="M24.2535 28.423C24.2535 27.0872 23.734 25.8256 22.8435 24.9351" stroke="#4F6872" stroke-width="1.3" stroke-miterlimit="10" stroke-linecap="round" stroke-linejoin="round"/>
<path d="M17.379 24.8608C16.4885 25.7514 15.969 27.013 15.969 28.3488" stroke="#4F6872" stroke-width="1.3" stroke-miterlimit="10" stroke-linecap="round" stroke-linejoin="round"/>
<path d="M20.1116 20.7789C22.6527 20.7789 24.7127 18.7189 24.7127 16.1778C24.7127 13.6366 22.6527 11.5767 20.1116 11.5767C17.5705 11.5767 15.5105 13.6366 15.5105 16.1778C15.5105 18.7189 17.5705 20.7789 20.1116 20.7789Z" stroke="#4F6872" stroke-width="1.3" stroke-miterlimit="10" stroke-linecap="round" stroke-linejoin="round"/>
</svg>
