<svg width="165" height="165" viewBox="0 0 165 165" fill="none" xmlns="http://www.w3.org/2000/svg">
<path d="M82.5 165C128.063 165 165 128.063 165 82.5C165 36.9365 128.063 0 82.5 0C36.9365 0 0 36.9365 0 82.5C0 128.063 36.9365 165 82.5 165Z" fill="#F0C7C7"/>
<path d="M132.171 94.4051C137.104 90.1525 139.485 83.0082 137.614 76.8844C136.594 73.3123 134.042 70.0803 133.532 66.1679C132.851 60.8948 135.913 55.7917 137.444 50.6886C139.826 43.204 139.145 31.9772 129.96 29.7659C127.408 29.0855 124.857 29.4257 122.305 29.2556C119.753 29.2556 117.032 28.9154 114.991 27.3844C112.439 25.5133 111.248 22.4515 109.377 20.07C106.145 16.1576 100.702 14.6267 95.7689 15.137C90.8359 15.8174 86.2431 18.5391 82.8411 22.1112C80.6297 24.4927 78.5885 27.2143 75.3565 27.7246C73.4854 28.0649 71.6143 27.3844 69.9132 26.8741C62.7689 24.4927 53.2431 20.5803 47.1194 27.7246C42.5266 32.9978 43.5473 40.8226 37.5936 45.0752C35.0421 46.9463 31.8101 47.9669 28.7483 49.3277C25.6864 50.6886 22.7947 52.5597 21.4339 55.4515C20.073 58.3432 20.5833 61.9154 21.9441 64.8071C23.305 67.6989 26.0266 69.57 27.5576 72.2917C28.7483 74.503 28.7483 77.735 28.4081 80.1164C27.8978 85.7298 25.3462 91.5133 26.3668 97.2968C27.8978 105.462 36.573 110.565 44.9081 111.075C51.2019 111.415 57.3256 109.884 63.4493 108.013C68.7225 106.482 73.8256 105.972 79.0988 104.271C86.2431 102.06 93.5575 100.359 100.872 99.3381C104.614 98.8277 108.357 98.4875 112.269 98.1473C115.501 97.9772 118.393 98.9978 121.454 98.6576C125.197 98.6576 129.109 97.1267 132.171 94.4051Z" fill="#2F3087"/>
<path d="M49.4998 128.088C53.4121 123.325 56.474 117.882 58.5152 111.928C60.5564 105.804 56.3039 103.253 53.7523 98.3197C52.7317 96.4486 52.3915 94.0671 53.9224 92.5362C56.6441 89.8145 61.2368 91.6857 64.4688 91.8558C66.51 92.0259 68.8915 91.6857 70.4224 90.3249C72.8039 88.1135 72.2936 84.3712 72.6338 81.1393C73.6544 74.1651 80.4585 68.8919 87.6028 68.3816C90.8348 68.0413 94.2368 68.7218 97.4688 68.5517C100.701 68.3816 104.273 67.531 106.314 64.9795C107.335 67.531 108.355 70.2527 109.376 72.8042C111.928 79.4383 114.649 86.2424 115.67 93.2166C116.69 100.361 116.52 109.206 112.778 115.33C109.376 120.943 102.742 126.217 91.5152 125.366C91.0049 125.366 88.1132 139.655 87.773 141.016C72.1235 141.186 53.7523 130.809 49.4998 128.088Z" fill="#BEB4D9"/>
<path d="M91.3468 125.539C82.5015 124.518 72.9757 114.822 71.4448 110.399C71.4448 110.399 69.4035 128.26 89.1355 134.044L91.3468 125.539Z" fill="#6961AB"/>
<path d="M112.438 83.1812C111.587 83.1812 110.737 83.3513 110.056 83.3513C108.525 83.5214 107.164 84.2018 105.634 84.542C104.103 84.8822 102.402 85.0523 100.871 84.7121C97.8088 83.8616 94.5768 83.0111 91.5149 82.841C88.9634 82.6709 86.2418 82.6709 83.6902 82.6709C82.8397 82.6709 72.8036 82.841 72.8036 82.841C72.6335 84.2018 72.6335 84.8822 72.6335 85.9029C75.8655 85.9029 80.2882 85.9029 84.2005 85.9029C84.0304 85.9029 84.2005 90.3255 84.2005 90.8359C84.3706 92.5369 85.0511 94.2379 86.0717 95.5987C87.6026 97.4699 89.814 98.4905 92.1954 98.4905C96.7882 98.4905 100.53 94.7482 100.53 90.1554C100.53 89.1348 101.381 88.2843 102.402 88.2843C103.422 88.2843 104.273 89.1348 104.273 90.1554C104.273 94.7482 108.015 98.4905 112.608 98.4905C117.201 98.4905 120.943 94.7482 120.943 90.1554C120.943 88.1142 120.943 86.073 120.773 84.0317V83.8616C120.773 83.8616 120.603 83.6915 120.432 83.6915C117.371 83.0111 114.989 83.0111 112.438 83.1812ZM91.8552 94.9183C89.984 94.9183 88.283 93.8977 87.4325 92.1967C86.582 90.3255 87.0923 87.9441 87.4325 86.073C89.3036 85.9029 91.0047 85.9029 93.0459 86.073C95.2573 86.4132 97.1284 87.4338 97.1284 89.9853C96.7882 92.5369 94.2366 94.9183 91.8552 94.9183ZM112.268 94.9183C110.737 94.9183 109.206 93.8977 108.185 92.707C107.164 91.1761 106.654 88.6245 108.185 87.4338C109.376 86.5833 111.247 86.4132 112.608 86.4132C113.969 86.2431 115.5 86.4132 116.86 86.4132C117.201 88.4544 117.371 90.4956 116.52 92.3668C115.67 93.8977 113.969 94.9183 112.268 94.9183Z" fill="#2F3087"/>
<path d="M82.5011 165C93.5578 165 103.934 162.788 113.63 158.876C106.486 151.562 97.8104 145.438 87.6042 141.015C75.697 135.912 62.7692 131.83 50.8619 126.727C42.5269 133.701 32.6609 136.422 22.7949 139.314C37.9341 155.304 59.0269 165 82.5011 165Z" fill="#2F3087"/>
</svg>
