<svg width="26" height="20" viewBox="0 0 26 20" fill="none" xmlns="http://www.w3.org/2000/svg">
<path d="M14.6823 13.7011C15.8038 12.8039 17.2243 12.2058 18.7197 12.2058C22.1589 12.2058 25.0001 14.9722 25.0001 18.4862" stroke="#4F6872" stroke-width="1.3" stroke-miterlimit="10" stroke-linecap="round" stroke-linejoin="round"/>
<path d="M22.6076 18.4861C22.6076 17.3646 22.159 16.3926 21.4861 15.5702" stroke="#4F6872" stroke-width="1.3" stroke-miterlimit="10" stroke-linecap="round" stroke-linejoin="round"/>
<path d="M18.7944 12.2059C20.859 12.2059 22.5327 10.5322 22.5327 8.46758C22.5327 6.40296 20.859 4.72925 18.7944 4.72925C16.7297 4.72925 15.056 6.40296 15.056 8.46758C15.056 10.5322 16.7297 12.2059 18.7944 12.2059Z" stroke="#4F6872" stroke-width="1.3" stroke-miterlimit="10" stroke-linecap="round" stroke-linejoin="round"/>
<path d="M1 18.4861C1 14.2244 4.43927 10.7852 8.70097 10.7852C12.9627 10.7852 16.4019 14.2244 16.4019 18.4861" stroke="#4F6872" stroke-width="1.3" stroke-miterlimit="10" stroke-linecap="round" stroke-linejoin="round"/>
<path d="M13.9344 18.486C13.9344 17.1402 13.411 15.8691 12.5138 14.9719" stroke="#4F6872" stroke-width="1.3" stroke-miterlimit="10" stroke-linecap="round" stroke-linejoin="round"/>
<path d="M4.8129 14.8972C3.9157 15.7944 3.39233 17.0655 3.39233 18.4113" stroke="#4F6872" stroke-width="1.3" stroke-miterlimit="10" stroke-linecap="round" stroke-linejoin="round"/>
<path d="M8.70097 10.7852C11.2611 10.7852 13.3365 8.70983 13.3365 6.14969C13.3365 3.58956 11.2611 1.51416 8.70097 1.51416C6.14083 1.51416 4.06543 3.58956 4.06543 6.14969C4.06543 8.70983 6.14083 10.7852 8.70097 10.7852Z" stroke="#4F6872" stroke-width="1.3" stroke-miterlimit="10" stroke-linecap="round" stroke-linejoin="round"/>
</svg>
