<svg width="165" height="165" viewBox="0 0 165 165" fill="none" xmlns="http://www.w3.org/2000/svg">
<path d="M82.4995 164.833C128.063 164.833 164.999 127.934 164.999 82.4166C164.999 36.8992 128.063 0 82.4995 0C36.9363 0 0 36.8992 0 82.4166C0 127.934 36.9363 164.833 82.4995 164.833Z" fill="#F2F3F5"/>
<path d="M39.2945 112.661C40.6553 119.289 39.1244 123.877 36.9131 129.994C33.511 139.001 40.6553 148.347 47.2893 153.785C51.3718 157.013 55.9645 159.902 60.7274 162.111C67.7016 163.98 74.8459 165 82.5005 165C119.583 165 150.882 140.53 161.258 107.054C159.046 105.354 156.835 103.655 154.794 101.956C149.521 97.0276 146.119 90.4003 145.438 83.2632C144.418 73.5771 147.82 62.7015 142.376 54.7147C135.572 44.8587 122.645 49.2769 114.99 41.2902C112.609 38.9111 111.418 35.6824 109.717 32.7936C96.9591 11.2124 56.1346 14.4411 48.48 38.9111C47.1192 42.9895 46.6089 47.0678 47.1192 51.3161C47.6295 55.7343 47.9697 59.6427 45.4182 63.7211C42.6966 68.3092 37.4234 70.8582 34.3616 75.2764C30.4492 81.0541 31.2997 88.701 33.511 95.3283C35.2121 100.936 38.1038 106.544 39.2945 112.661Z" fill="#EB6A5B"/>
<path d="M82.5008 164.832C110.568 164.832 135.232 150.898 150.201 129.487C145.439 127.448 140.336 125.918 135.403 124.899C116.861 120.99 96.6193 121.84 77.7379 122.18C58.8566 122.52 36.7433 125.578 19.7331 135.434C34.7021 153.447 57.3257 164.832 82.5008 164.832Z" fill="#312C86"/>
<path d="M89.6424 147.33C77.0548 137.644 72.1218 123.879 71.9517 123.03C71.1012 114.533 70.4208 110.115 69.7404 100.939C61.0652 99.4093 53.5807 92.6121 51.1993 84.1155C50.3488 80.8868 50.0086 77.4882 50.0086 74.0896C50.0086 64.0636 52.5601 54.0377 52.7302 53.8678C58.0034 50.2992 62.5961 47.7502 69.06 47.2404C74.6734 46.7306 80.4569 47.9202 85.0496 51.4887C88.7919 54.3775 91.6836 58.286 93.3846 62.7042C94.4052 65.2531 95.2557 68.3119 97.6372 69.8413C99.6784 71.0308 102.4 70.521 104.271 69.3315C106.312 68.142 107.843 66.2727 109.204 64.4035C111.586 67.972 112.436 72.5602 111.245 76.6385C109.885 81.0567 107.333 84.7952 102.4 85.4749C102.91 93.1218 102.23 97.2002 103.591 103.997C104.952 110.965 106.482 117.592 110.395 123.37C110.735 123.37 103.08 137.134 89.6424 147.33Z" fill="#FBD1CF"/>
<path d="M69.739 100.768C79.0946 100.768 83.8574 98.3889 88.2801 94.3105C88.2801 94.3105 85.8987 108.075 70.4194 108.075C70.4194 108.075 67.6977 103.997 69.739 100.768Z" fill="#EB6A5B"/>
<path d="M67.3632 63.2139C61.92 63.2139 56.4767 63.3838 51.0334 63.3838C49.8427 63.3838 48.8221 63.3838 47.6314 63.3838C46.6108 63.3838 45.2499 63.044 44.7396 64.2335C43.8891 65.9328 45.4201 68.4817 46.6108 69.8412C47.6314 71.3706 49.3324 72.5601 51.2035 73.0699C52.2241 73.4098 53.4149 73.5797 54.2654 73.5797C56.1365 73.5797 57.6674 73.0699 59.1983 72.0503C60.389 71.2007 61.4097 70.0111 62.0901 68.8216C62.6004 67.972 62.7705 66.1027 63.9612 65.9328C65.1519 65.7629 65.322 66.9524 65.8323 67.802C66.1725 68.6517 66.8529 69.5013 67.3632 70.351C68.5539 71.7104 70.0849 72.9 71.956 73.2398C72.9766 73.5797 73.9972 73.5797 74.8477 73.5797C76.7188 73.5797 78.2498 73.0699 79.7807 72.0503C82.5023 70.1811 83.5229 67.4622 84.0332 65.9328C88.1157 66.1027 92.028 65.9328 94.9198 65.9328L93.559 62.874C89.3064 63.2139 78.4199 63.044 76.5487 63.2139C73.4869 63.2139 70.4251 63.2139 67.3632 63.2139ZM68.5539 66.1027C68.5539 66.1027 78.59 65.9328 80.4611 65.9328C79.7807 67.802 77.5694 71.7104 72.8065 70.5209C70.9354 69.8412 69.2344 67.802 68.5539 66.1027ZM47.6314 66.2726C48.652 66.2726 50.1829 66.2726 51.0334 66.2726C52.2241 66.2726 53.585 66.4426 55.1159 66.2726C56.1365 66.2726 58.1777 66.2726 59.5385 66.2726C59.1983 67.2922 58.688 68.6517 57.4973 69.5013C56.1365 70.5209 53.9252 70.8608 51.8839 70.351C50.1829 70.0111 48.3118 68.1419 47.6314 66.2726Z" fill="#312C86"/>
</svg>
